<svg xmlns="http://www.w3.org/2000/svg" viewBox="0 0 400 400" fill="none" role="img" aria-label="Blue Earth with clouds and city lights">
  <defs>
    <radialGradient id="blueOcean" cx="64%" cy="28%" r="84%">
      <stop offset="0%" stop-color="#d7ecff"/>
      <stop offset="18%" stop-color="#5c8edb"/>
      <stop offset="48%" stop-color="#12345d"/>
      <stop offset="78%" stop-color="#050b18"/>
      <stop offset="100%" stop-color="#01030a"/>
    </radialGradient>
    <radialGradient id="blueAtmo" cx="68%" cy="26%" r="60%">
      <stop offset="74%" stop-color="#60a5fa" stop-opacity="0"/>
      <stop offset="90%" stop-color="#93c5fd" stop-opacity=".35"/>
      <stop offset="100%" stop-color="#dbeafe" stop-opacity=".92"/>
    </radialGradient>
    <linearGradient id="blueNight" x1="14%" y1="38%" x2="77%" y2="64%">
      <stop offset="0%" stop-color="#00030a" stop-opacity=".9"/>
      <stop offset="52%" stop-color="#00030a" stop-opacity=".24"/>
      <stop offset="100%" stop-color="#00030a" stop-opacity="0"/>
    </linearGradient>
    <filter id="cloudSoft" x="0" y="0" width="400" height="400">
      <feGaussianBlur stdDeviation=".65"/>
    </filter>
    <filter id="blueLightBloom" x="0" y="0" width="400" height="400" color-interpolation-filters="sRGB">
      <feGaussianBlur stdDeviation="1.1" result="blur"/>
      <feMerge>
        <feMergeNode in="blur"/>
        <feMergeNode in="SourceGraphic"/>
      </feMerge>
    </filter>
    <clipPath id="blueClip">
      <circle cx="200" cy="200" r="168"/>
    </clipPath>
  </defs>
  <circle cx="200" cy="200" r="180" fill="#02040a"/>
  <g clip-path="url(#blueClip)">
    <circle cx="200" cy="200" r="168" fill="url(#blueOcean)"/>
    <g fill="#2f6f45" opacity=".66">
      <path d="M178 91c30 7 50 22 54 43 4 24-16 43-49 42-35-1-70-21-76-46-6-26 26-47 71-39Z"/>
      <path d="M244 155c38 3 74 22 86 50 9 22-6 39-40 37-38-2-80-27-88-55-5-20 9-35 42-32Z"/>
      <path d="M135 223c31 9 66 31 76 55 8 20-8 33-39 25-36-9-67-34-71-59-3-19 10-28 34-21Z"/>
    </g>
    <g filter="url(#cloudSoft)" fill="#f8fbff" opacity=".68">
      <path d="M126 116c34-10 83-5 121 14 17 9 13 23-7 23-45 1-89-4-126-18-15-6-12-15 12-19Z"/>
      <path d="M230 91c39 3 82 17 105 41 10 11 2 20-18 17-47-8-88-20-120-38-13-7-6-22 33-20Z"/>
      <path d="M167 183c45-8 90-2 126 15 18 9 14 23-10 25-43 3-93-4-132-18-19-7-11-17 16-22Z"/>
      <path d="M227 243c39 2 74 15 96 35 10 9 2 19-17 17-45-6-86-17-114-33-14-8-3-21 35-19Z"/>
      <path d="M98 258c40 2 75 13 100 34 11 9 4 19-15 18-46-3-83-15-110-34-12-9-1-20 25-18Z"/>
    </g>
    <g filter="url(#blueLightBloom)" fill="#fbbf24" opacity=".84">
      <circle cx="126" cy="182" r="1.1"/><circle cx="139" cy="188" r="1.3"/><circle cx="151" cy="197" r="1"/>
      <circle cx="164" cy="205" r="1.2"/><circle cx="178" cy="214" r="1"/><circle cx="193" cy="221" r="1.3"/>
      <circle cx="208" cy="229" r="1"/><circle cx="225" cy="236" r="1.2"/><circle cx="241" cy="243" r="1"/>
      <circle cx="158" cy="159" r="1"/><circle cx="172" cy="166" r="1.3"/><circle cx="187" cy="174" r="1"/>
      <circle cx="203" cy="183" r="1.2"/><circle cx="219" cy="192" r="1"/><circle cx="237" cy="200" r="1.4"/>
      <circle cx="91" cy="221" r="1"/><circle cx="106" cy="230" r="1.2"/><circle cx="122" cy="239" r="1"/>
      <circle cx="139" cy="248" r="1.1"/><circle cx="158" cy="257" r="1.3"/>
    </g>
    <rect width="400" height="400" fill="url(#blueNight)"/>
    <circle cx="200" cy="200" r="168" fill="url(#blueAtmo)"/>
    <path d="M250 35c67 31 112 97 115 172 3 70-31 131-85 165 81-28 139-104 139-192 0-106-77-191-169-145Z" fill="#9cc6ff" opacity=".18"/>
    <circle cx="200" cy="200" r="168" fill="none" stroke="#cfe5ff" stroke-opacity=".48" stroke-width="2.5"/>
  </g>
</svg>
