<svg xmlns="http://www.w3.org/2000/svg" viewBox="0 0 400 400" fill="none" role="img" aria-label="Jupiter with storm bands and great red spot">
  <defs>
    <radialGradient id="jupiterShade" cx="66%" cy="30%" r="83%">
      <stop offset="0%" stop-color="#fff1d6"/>
      <stop offset="24%" stop-color="#d2a06f"/>
      <stop offset="55%" stop-color="#6d5038"/>
      <stop offset="84%" stop-color="#11100f"/>
      <stop offset="100%" stop-color="#030303"/>
    </radialGradient>
    <linearGradient id="jupiterBands" x1="0" y1="0" x2="0" y2="400">
      <stop offset="0%" stop-color="#e7cfaa"/>
      <stop offset="14%" stop-color="#8b6343"/>
      <stop offset="25%" stop-color="#d7b38a"/>
      <stop offset="38%" stop-color="#5e4635"/>
      <stop offset="49%" stop-color="#ead0a9"/>
      <stop offset="62%" stop-color="#8f5e3d"/>
      <stop offset="75%" stop-color="#c89b70"/>
      <stop offset="88%" stop-color="#4b392b"/>
      <stop offset="100%" stop-color="#a67b58"/>
    </linearGradient>
    <radialGradient id="jupiterRim" cx="68%" cy="28%" r="58%">
      <stop offset="76%" stop-color="#fbbf24" stop-opacity="0"/>
      <stop offset="92%" stop-color="#f8d9b2" stop-opacity=".24"/>
      <stop offset="100%" stop-color="#fff7ed" stop-opacity=".72"/>
    </radialGradient>
    <filter id="jupiterFlow" x="0" y="0" width="400" height="400">
      <feTurbulence type="fractalNoise" baseFrequency=".035 .16" numOctaves="4" seed="23"/>
      <feDisplacementMap in="SourceGraphic" scale="12"/>
    </filter>
    <clipPath id="jupiterClip">
      <circle cx="200" cy="200" r="168"/>
    </clipPath>
  </defs>
  <circle cx="200" cy="200" r="180" fill="#050403"/>
  <g clip-path="url(#jupiterClip)">
    <circle cx="200" cy="200" r="168" fill="url(#jupiterShade)"/>
    <g filter="url(#jupiterFlow)" opacity=".94">
      <rect x="22" y="46" width="356" height="308" fill="url(#jupiterBands)"/>
      <path d="M47 102c62 15 117 13 167-6 50-18 96-17 139 6v31c-55-17-107-17-157 0-50 18-99 16-149-5v-26Z" fill="#f2dcc0" opacity=".54"/>
      <path d="M39 149c76-16 140-14 193 8 45 18 85 16 121-5v34c-49 14-96 11-142-9-49-21-106-22-172-3v-25Z" fill="#5b3d2d" opacity=".6"/>
      <path d="M38 210c59 14 112 12 160-6 58-22 110-19 156 9v31c-53-18-105-19-155-2-53 18-106 16-161-5v-27Z" fill="#e0b083" opacity=".65"/>
      <path d="M41 269c72-10 132-5 181 17 43 19 86 19 129 0v34c-56 12-109 7-159-15-45-20-95-22-151-8v-28Z" fill="#3d3027" opacity=".58"/>
    </g>
    <g opacity=".58">
      <ellipse cx="258" cy="250" rx="46" ry="23" fill="#a8492f" transform="rotate(-7 258 250)"/>
      <ellipse cx="259" cy="250" rx="32" ry="15" fill="#d06b44" transform="rotate(-7 259 250)"/>
      <ellipse cx="260" cy="250" rx="14" ry="6" fill="#f4a261" transform="rotate(-7 260 250)"/>
    </g>
    <g stroke="#fff3df" stroke-linecap="round" opacity=".22">
      <path d="M59 125c79 12 143 8 194-12 31-12 65-10 100 5" stroke-width="2"/>
      <path d="M51 191c78-9 139-4 183 13 40 15 79 13 118-6" stroke-width="1.6"/>
      <path d="M58 233c85 15 153 12 205-8 26-10 55-7 86 8" stroke-width="1.8"/>
      <path d="M71 294c65-6 119-1 162 15 36 14 72 12 109-4" stroke-width="1.5"/>
    </g>
    <rect width="400" height="400" fill="#000000" opacity=".08"/>
    <circle cx="200" cy="200" r="168" fill="url(#jupiterRim)"/>
    <circle cx="200" cy="200" r="168" fill="none" stroke="#ffe3bd" stroke-opacity=".3" stroke-width="2"/>
  </g>
</svg>
